<?xml version="1.0"?>
<svg xmlns="http://www.w3.org/2000/svg" xmlns:xlink="http://www.w3.org/1999/xlink" xmlns:svgjs="http://svgjs.com/svgjs" version="1.1" width="512" height="512" x="0" y="0" viewBox="0 0 74 74" style="enable-background:new 0 0 512 512" xml:space="preserve" class=""><g><g xmlns="http://www.w3.org/2000/svg" id="line_color" data-name="line color"><path d="m57.07 8.65-37.56 56.65a33.985 33.985 0 0 1 37.56-56.65z" fill="#4ca389" data-original="#9297ab" style="" class=""/><path d="m72.33 37a33.981 33.981 0 0 1 -52.82 28.3l37.56-56.65a33.976 33.976 0 0 1 15.26 28.35z" fill="#343434" data-original="#89c5cd" style="" class=""/><path d="m57.07 8.65-2.5 3.77a33.962 33.962 0 0 0 -33.31-4.81 33.906 33.906 0 0 1 35.81 1.04z" fill="#84879c" data-original="#84879c" style="" class=""/><path d="m72.33 37a34.043 34.043 0 0 1 -21.53 31.63 33.971 33.971 0 0 0 3.77-56.21l2.5-3.77a33.976 33.976 0 0 1 15.26 28.35z" fill="#343434" data-original="#6eaaad" style="" class=""/><path d="m22.264 53.735a.745.745 0 0 1 -.229-1.028l5.42-8.523a.745.745 0 0 1 1.257.8l-5.42 8.523a.745.745 0 0 1 -1.028.228z" fill="#ffffff" data-original="#ffffff" style=""/><path d="m29.605 42.19a.745.745 0 0 1 -.229-1.028l.342-.537a.745.745 0 0 1 1.257.8l-.342.537a.745.745 0 0 1 -1.028.228z" fill="#ffffff" data-original="#ffffff" style=""/><g fill="#323c6b"><path d="m22.97 16.295a.5.5 0 0 1 -.5-.5v-.7a.5.5 0 1 1 1 0v.7a.5.5 0 0 1 -.5.5z" fill="#306655" data-original="#323c6b" style="" class=""/><path d="m16.827 18.839a.5.5 0 0 1 -.354-.146l-.493-.493a.5.5 0 0 1 .707-.707l.493.493a.5.5 0 0 1 -.354.854z" fill="#306655" data-original="#323c6b" style="" class=""/><path d="m14.283 24.981h-.7a.5.5 0 1 1 0-1h.7a.5.5 0 0 1 0 1z" fill="#306655" data-original="#323c6b" style="" class=""/><path d="m16.334 31.617a.5.5 0 0 1 -.354-.854l.493-.493a.5.5 0 0 1 .707.707l-.493.493a.5.5 0 0 1 -.353.147z" fill="#306655" data-original="#323c6b" style="" class=""/><path d="m22.97 34.366a.5.5 0 0 1 -.5-.5v-.7a.5.5 0 0 1 1 0v.7a.5.5 0 0 1 -.5.5z" fill="#306655" data-original="#323c6b" style="" class=""/><path d="m29.605 31.617a.5.5 0 0 1 -.354-.146l-.493-.493a.5.5 0 0 1 .707-.707l.493.493a.5.5 0 0 1 -.354.854z" fill="#306655" data-original="#323c6b" style="" class=""/><path d="m32.354 24.981h-.7a.5.5 0 0 1 0-1h.7a.5.5 0 0 1 0 1z" fill="#306655" data-original="#323c6b" style="" class=""/><path d="m29.112 18.839a.5.5 0 0 1 -.354-.854l.493-.493a.5.5 0 0 1 .707.707l-.493.493a.5.5 0 0 1 -.353.147z" fill="#306655" data-original="#323c6b" style="" class=""/></g><circle cx="22.97" cy="24.482" fill="#fcd462" r="6.69" data-original="#fcd462" style=""/><path d="m29.66 24.48a6.623 6.623 0 0 1 -2.72 5.37 6.69 6.69 0 0 0 -9.51-9.13 6.694 6.694 0 0 1 12.23 3.76z" fill="#f7be56" data-original="#f7be56" style="" class=""/><path d="m59.707 54.554a8.351 8.351 0 1 1 -10.635-11.611 8.354 8.354 0 0 0 10.635 11.611z" fill="#eeefee" data-original="#eeefee" style="" class=""/><path d="m59.71 54.55a8.354 8.354 0 0 1 -15.56-2.25 8.523 8.523 0 0 1 -.16-1.31 8.351 8.351 0 0 0 9.64 5.7 8.223 8.223 0 0 0 3.32-1.49 7.8 7.8 0 0 0 1.17-.15 8.642 8.642 0 0 0 1.59-.5z" fill="#e1e6e9" data-original="#e1e6e9" style="" class=""/><path d="m38.333 71.5a34.5 34.5 0 1 1 34.5-34.5 34.539 34.539 0 0 1 -34.5 34.5zm0-68a33.5 33.5 0 1 0 33.5 33.5 33.538 33.538 0 0 0 -33.5-33.5z" fill="#306655" data-original="#323c6b" style="" class=""/><path d="m52.317 59.485a8.854 8.854 0 0 1 -3.44-17 .5.5 0 0 1 .637.7 7.854 7.854 0 0 0 10 10.916.5.5 0 0 1 .637.7 8.826 8.826 0 0 1 -6.042 4.499 8.943 8.943 0 0 1 -1.792.185zm-4.263-15.437a7.877 7.877 0 0 0 -3.409 8.152 7.851 7.851 0 0 0 13.874 3.27c-.1.024-.2.046-.3.067a8.851 8.851 0 0 1 -10.165-11.489z" fill="#306655" data-original="#323c6b" style="" class=""/><path d="m22.97 31.672a7.19 7.19 0 1 1 7.19-7.19 7.2 7.2 0 0 1 -7.19 7.19zm0-13.38a6.19 6.19 0 1 0 6.19 6.19 6.2 6.2 0 0 0 -6.19-6.19z" fill="#306655" data-original="#323c6b" style="" class=""/><path d="m12.325 63.75a.5.5 0 0 1 -.353-.145 37.728 37.728 0 0 1 -6.578-8.725.5.5 0 0 1 .879-.479 36.7 36.7 0 0 0 6.405 8.499.5.5 0 0 1 -.353.855z" fill="#306655" data-original="#323c6b" style="" class=""/><path d="m4.065 51.417a.5.5 0 0 1 -.465-.317c-.162-.4-.308-.8-.453-1.209l-.111-.309a.5.5 0 0 1 .941-.34l.111.312c.141.393.281.785.438 1.17a.5.5 0 0 1 -.463.688z" fill="#306655" data-original="#323c6b" style="" class=""/><path d="m48.875 2.05a.5.5 0 0 1 -.143-.021c-.283-.084-.569-.157-.856-.23l-.421-.108a.5.5 0 0 1 .256-.967l.411.106c.3.077.6.153.9.241a.5.5 0 0 1 -.143.979z" fill="#306655" data-original="#323c6b" style="" class=""/><path d="m62.8 9.813a.5.5 0 0 1 -.331-.125 36.477 36.477 0 0 0 -10.593-6.565.5.5 0 0 1 .373-.928 37.473 37.473 0 0 1 10.882 6.743.5.5 0 0 1 -.331.875z" fill="#306655" data-original="#323c6b" style="" class=""/><path d="m19.51 65.8a.5.5 0 0 1 -.417-.776l37.56-56.65a.5.5 0 0 1 .834.553l-37.56 56.649a.5.5 0 0 1 -.417.224z" fill="#306655" data-original="#323c6b" style="" class=""/></g></g></svg>
